<svg xmlns="http://www.w3.org/2000/svg" viewBox="0 0 24 24"><title>Contact Mail</title><path fill-rule="evenodd" d="M22 3H2C.9 3 0 3.9 0 5v14c0 1.1.9 2 2 2h20c1.1 0 1.99-.9 1.99-2L24 5c0-1.1-.9-2-2-2Zm-1 5V7l-3 2-3-2v1l2.72 1.82a.5.5 0 0 0 .55 0L21 8ZM11 9c0-1.66-1.34-3-3-3S5 7.34 5 9s1.34 3 3 3 3-1.34 3-3Zm-9 9v-1c0-2 4-3.1 6-3.1s6 1.1 6 3.1v1H2Zm12.5-6h7c.28 0 .5-.22.5-.5v-5c0-.28-.22-.5-.5-.5h-7c-.28 0-.5.22-.5.5v5c0 .28.22.5.5.5Z"></path><metadata>account, address, avatar, communicate, contact, email, face, human, info, information, mail, message, people, person, profile, user</metadata></svg>